<?xml version="1.0" encoding="utf-8"?>
<!-- Generator: Adobe Illustrator 23.1.1, SVG Export Plug-In . SVG Version: 6.00 Build 0)  -->
<svg version="1.1" id="Layer_3_xA0_Image_1_" xmlns="http://www.w3.org/2000/svg" xmlns:xlink="http://www.w3.org/1999/xlink"
	 x="0px" y="0px" viewBox="0 0 32 32" style="enable-background:new 0 0 32 32;" xml:space="preserve">
<style type="text/css">
	.st0{fill:#282828;}
</style>
<g>
	<path class="st0" d="M32,10h-2V6h-2V4h-2V2h-4V0H10v2H6v2H4v2H2v4H0v12h2v4h2v2h2v2h4v2h12v-2h4v-2h2v-2h2v-4h2V10z M28,20v4h-2v2
		h-2v2h-4v2h-8v-2H8v-2H6v-2H4v-4H2v-8h2V8h2V6h2V4h4V2h8v2h4v2h2v2h2v4h2v8H28z"/>
	<polygon class="st0" points="16,6 14,6 14,18 16,18 23,18 23,16 16,16 	"/>
</g>
</svg>
