<?xml version="1.0" encoding="utf-8"?>
<!-- Generator: Adobe Illustrator 23.1.1, SVG Export Plug-In . SVG Version: 6.00 Build 0)  -->
<svg version="1.1" id="Layer_3_xA0_Image_1_" xmlns="http://www.w3.org/2000/svg" xmlns:xlink="http://www.w3.org/1999/xlink"
	 x="0px" y="0px" viewBox="0 0 32 32" style="enable-background:new 0 0 32 32;" xml:space="preserve">
<style type="text/css">
	.st0{fill:#CCCCCC;}
</style>
<g>
	<path class="st0" d="M31,12V9h-1V8V7h-1V6h-1V5h-1V4h-1V3h-1V2h-2V1h-3V0h-4h-4v1H9v1H8H7v1H6v1H5v1H4v1H3v1H2v2H1v3H0v4v4h1v3h1v1
		v1h1v1h1v1h1v1h1v1h1v1h2v1h3v1h4h4v-1h3v-1h1h1v-1h1v-1h1v-1h1v-1h1v-1h1v-2h1v-3h1v-4v-4H31z M29,21h-1v2h-1v1h-1v1h-1v1h-1v1h-1
		v1h-2v1h-3v1h-2h-2v-1h-3v-1H9v-1H8v-1H7v-1H6v-1H5v-1H4v-2H3v-3H2v-4h1v-3h1V9h1V8h1V7h1V6h1V5h1V4h2V3h3V2h2h2v1h3v1h2v1h1v1h1v1
		h1v1h1v1h1v2h1v3h1v4h-1V21z"/>
	<polygon class="st0" points="16,6 14,6 14,16 14,18 23,18 23,16 16,16 	"/>
</g>
</svg>
