<?xml version="1.0" encoding="utf-8"?>
<!-- Generator: Adobe Illustrator 23.1.1, SVG Export Plug-In . SVG Version: 6.00 Build 0)  -->
<svg version="1.1" id="Layer_3_xA0_Image_1_" xmlns="http://www.w3.org/2000/svg" xmlns:xlink="http://www.w3.org/1999/xlink"
	 x="0px" y="0px" viewBox="0 0 32 32" style="enable-background:new 0 0 32 32;" xml:space="preserve">
<style type="text/css">
	.st0{fill:#C0C0C0;}
</style>
<path class="st0" d="M30,2V0H2v2H0v28h2v2h28v-2h2V2H30z M12,30v-4H8v-2H6v-2H2v-2h4v2h2v2h4v-2h2v-2h-4v-2H8v-2H6V8h2V4V2h2v2h2v2
	h10V4h2V2h2v6h2v8h-2v2h-2v2h-4v2h2v8H12z"/>
</svg>
