<?xml version="1.0" encoding="utf-8"?>
<!-- Generator: Adobe Illustrator 23.1.1, SVG Export Plug-In . SVG Version: 6.00 Build 0)  -->
<svg version="1.1" id="Layer_3_xA0_Image_1_" xmlns="http://www.w3.org/2000/svg" xmlns:xlink="http://www.w3.org/1999/xlink"
	 x="0px" y="0px" viewBox="0 0 32 32" style="enable-background:new 0 0 32 32;" xml:space="preserve">
<style type="text/css">
	.st0{fill:#B0B0B0;}
</style>
<g>
	<path class="st0" d="M30,3V1H2v2h2v2H2V3H0v26h2v2h28v-2h2V3H30z M12,3v2h-2V3H12z M6,3h2v2H6V3z M2,29V7h28v22H2z"/>
	<rect x="11" y="25" class="st0" width="10" height="2"/>
	<rect x="9" y="11" class="st0" width="2" height="2"/>
	<rect x="21" y="11" class="st0" width="2" height="2"/>
	<polygon class="st0" points="9,23 9,19 11,19 11,17 9,17 9,13 7,13 7,24 9,24 9,25 11,25 11,23 	"/>
	<rect x="21" y="23" class="st0" width="2" height="2"/>
	<polygon class="st0" points="23,15 21,15 21,13 19,13 19,15 17,15 17,17 19,17 19,19 23,19 23,23 25,23 25,13 23,13 	"/>
	<polygon class="st0" points="13,13 11,13 11,17 13,17 13,15 15,15 15,11 21,11 21,9 11,9 11,11 13,11 	"/>
	<polygon class="st0" points="13,21 13,23 15,23 15,21 15,19 11,19 11,21 	"/>
</g>
</svg>
